<?xml version="1.0" encoding="utf-8"?>
<!-- Generator: Adobe Illustrator 19.0.0, SVG Export Plug-In . SVG Version: 6.00 Build 0)  -->
<svg version="1.1" id="Layer_1" xmlns="http://www.w3.org/2000/svg" xmlns:xlink="http://www.w3.org/1999/xlink" x="0px" y="0px"
	 viewBox="-21 22.3 56.7 56.7" style="enable-background:new -21 22.3 56.7 56.7;" xml:space="preserve">
<g id="XMLID_1_">
	<g>
		<path d="M-10.7,62.1c3.3,2.1,7.2,3.4,11.4,3.4c13.8,0,21.3-11.4,21.3-21.3c0-0.3,0-0.6,0-1c1.6-1,2.8-2.3,3.9-3.8
			c-1.4,0.6-2.8,1-4.3,1.2c1.6-0.9,2.7-2.4,3.3-4.1c-1.4,0.8-3,1.5-4.8,1.8c-1.4-1.4-3.3-2.4-5.5-2.4c-4.2,0-7.5,3.4-7.5,7.5
			c0,0.6,0.1,1.2,0.2,1.7c-6.2-0.3-11.8-3.3-15.5-7.8c-0.6,1.1-1,2.4-1,3.7c0,2.6,1.3,4.9,3.4,6.2c-1.2-0.1-2.4-0.4-3.4-0.9v0.1
			c0,3.6,2.6,6.7,6,7.4c-0.7,0.2-1.3,0.3-2,0.3c-0.5,0-1-0.1-1.4-0.1c1,3,3.7,5.1,7,5.2c-2.6,2-5.8,3.2-9.3,3.2
			C-9.4,62.2-10.1,62.2-10.7,62.1z M34.2,26.8v47.7c0,1.6-1.4,3-3,3h-47.7c-1.6,0-3-1.4-3-3V26.8c0-1.6,1.4-3,3-3h47.7
			C32.8,23.8,34.2,25.2,34.2,26.8z"/>
	</g>
	<g>
	</g>
</g>
</svg>
