<?xml version="1.0" encoding="utf-8"?>
<!-- Generator: Adobe Illustrator 19.0.0, SVG Export Plug-In . SVG Version: 6.00 Build 0)  -->
<svg version="1.1" id="Layer_1" xmlns="http://www.w3.org/2000/svg" xmlns:xlink="http://www.w3.org/1999/xlink" x="0px" y="0px"
	 viewBox="-21 22.3 56.7 56.7" style="enable-background:new -21 22.3 56.7 56.7;" xml:space="preserve">
<path d="M27.7,23.5H-13c-3.8,0-6.8,3-6.8,6.8V71c0,3.8,3,6.8,6.8,6.8h40.8c3.8,0,6.8-3,6.8-6.8V30.3C34.5,26.4,31.6,23.5,27.7,23.5z
	 M7.4,40c6,0,10.9,4.7,10.9,10.6c0,5.8-4.9,10.6-10.9,10.6c-6,0-10.9-4.7-10.9-10.6C-3.5,44.7,1.4,40,7.4,40z M27.7,69.3
	c0,1.2-0.5,1.7-1.7,1.7h-37.4c-1.2,0-1.7-0.5-1.7-1.7V45.6l4.2,0.9c-0.5,1.5-0.7,3-0.7,4.7c0,9,7.6,16.4,16.9,16.4
	c9.3,0,16.9-7.3,16.9-16.4c0-1.6-0.2-3.2-0.7-4.7l4.2-0.9V69.3z M27.7,38.8c0,0.9-0.8,1.7-1.7,1.7h-6.8c-0.9,0-1.7-0.8-1.7-1.7V32
	c0-0.9,0.8-1.7,1.7-1.7H26c0.9,0,1.7,0.8,1.7,1.7V38.8z"/>
</svg>
